<svg width="50" height="50" viewBox="32 90 50 50" fill="none" xmlns="http://www.w3.org/2000/svg">
<g filter="url(#filter0_ddd_234_3856)">
<mask id="path-1-outside-1_234_3856" maskUnits="userSpaceOnUse" x="33.0987" y="91.3328" width="47.8131" height="47.8131" fill="black">
<rect fill="white" x="33.0987" y="91.3328" width="47.8131" height="47.8131"/>
<path d="M34.7741 115.759C34.5585 103.407 44.3969 93.2192 56.7488 93.0036C69.1006 92.788 79.2885 102.626 79.5041 114.978C79.7198 127.33 69.8814 137.518 57.5295 137.734C45.1777 137.949 34.9897 128.111 34.7741 115.759ZM72.4045 115.102C72.2573 106.671 65.3035 99.9562 56.8727 100.103C48.4419 100.25 41.7267 107.204 41.8738 115.635C42.021 124.066 48.9748 130.781 57.4056 130.634C65.8364 130.487 72.5516 123.533 72.4045 115.102Z"/>
</mask>
<path d="M34.7741 115.759C34.5585 103.407 44.3969 93.2192 56.7488 93.0036C69.1006 92.788 79.2885 102.626 79.5041 114.978C79.7198 127.33 69.8814 137.518 57.5295 137.734C45.1777 137.949 34.9897 128.111 34.7741 115.759ZM72.4045 115.102C72.2573 106.671 65.3035 99.9562 56.8727 100.103C48.4419 100.25 41.7267 107.204 41.8738 115.635C42.021 124.066 48.9748 130.781 57.4056 130.634C65.8364 130.487 72.5516 123.533 72.4045 115.102Z" fill="url(#paint0_linear_234_3856)"/>
<path d="M34.7741 115.759C34.5585 103.407 44.3969 93.2192 56.7488 93.0036C69.1006 92.788 79.2885 102.626 79.5041 114.978C79.7198 127.33 69.8814 137.518 57.5295 137.734C45.1777 137.949 34.9897 128.111 34.7741 115.759ZM72.4045 115.102C72.2573 106.671 65.3035 99.9562 56.8727 100.103C48.4419 100.25 41.7267 107.204 41.8738 115.635C42.021 124.066 48.9748 130.781 57.4056 130.634C65.8364 130.487 72.5516 123.533 72.4045 115.102Z" stroke="url(#paint1_linear_234_3856)" stroke-width="2" mask="url(#path-1-outside-1_234_3856)"/>
</g>
<g filter="url(#filter1_i_234_3856)">
<circle cx="57" cy="115.369" r="25" transform="rotate(-90 57 115.369)" fill="url(#paint2_linear_234_3856)"/>
</g>
<circle cx="57" cy="115.369" r="24.5" transform="rotate(-90 57 115.369)" stroke="url(#paint3_linear_234_3856)" stroke-opacity="0.4"/>
<g filter="url(#filter2_df_234_3856)">
<circle cx="57" cy="115.369" r="21" transform="rotate(-90 57 115.369)" fill="url(#paint4_linear_234_3856)"/>
</g>
<g filter="url(#filter3_ddf_234_3856)">
<circle cx="57" cy="115.369" r="13" transform="rotate(-90 57 115.369)" fill="url(#paint5_linear_234_3856)"/>
</g>
<g clip-path="url(#clip0_234_3856)">
<path d="M66.9791 119.759L63.5416 125.329L62.125 124.453L65.5625 118.883L66.9791 119.759ZM53.4791 106.842L52.6066 105.42L46.9941 108.855L47.8633 110.276L53.4791 106.842ZM63.8158 109.73L65.3991 108.147L64.2225 106.967L62.6466 108.543C61.5088 107.641 60.1175 107.116 58.6672 107.043C57.2169 106.971 55.78 107.353 54.5575 108.136L48.9225 111.26C48.6226 111.459 48.3706 111.721 48.1847 112.029C47.9988 112.337 47.8836 112.682 47.8476 113.04C47.8115 113.398 47.8555 113.759 47.9762 114.097C48.097 114.436 48.2915 114.744 48.5458 114.998L57.3658 123.821C57.5895 124.047 57.8558 124.227 58.1493 124.349C58.4428 124.472 58.7577 124.535 59.0758 124.535C59.1803 124.535 59.2846 124.529 59.3883 124.516C59.7542 124.472 60.1048 124.343 60.4131 124.141C60.7214 123.939 60.9789 123.669 61.1658 123.351L64.4391 117.53C65.1188 116.314 65.4223 114.924 65.3114 113.535C65.2004 112.147 64.6799 110.823 63.8158 109.73ZM49.4991 120.605C49.4942 121.287 49.667 121.96 50.0004 122.556C50.3338 123.151 50.8164 123.65 51.4009 124.003C51.9853 124.356 52.6516 124.551 53.3341 124.569C54.0167 124.587 54.6921 124.427 55.2941 124.105L49.9658 118.771C49.6632 119.335 49.503 119.965 49.4991 120.605Z" fill="#FFA05C"/>
</g>
<defs>
<filter id="filter0_ddd_234_3856" x="-102.229" y="0" width="286.736" height="286.737" filterUnits="userSpaceOnUse" color-interpolation-filters="sRGB">
<feFlood flood-opacity="0" result="BackgroundImageFix"/>
<feColorMatrix in="SourceAlpha" type="matrix" values="0 0 0 0 0 0 0 0 0 0 0 0 0 0 0 0 0 0 127 0" result="hardAlpha"/>
<feOffset dx="-16" dy="28"/>
<feGaussianBlur stdDeviation="60"/>
<feColorMatrix type="matrix" values="0 0 0 0 1 0 0 0 0 0.627451 0 0 0 0 0.360784 0 0 0 0.1 0"/>
<feBlend mode="normal" in2="BackgroundImageFix" result="effect1_dropShadow_234_3856"/>
<feColorMatrix in="SourceAlpha" type="matrix" values="0 0 0 0 0 0 0 0 0 0 0 0 0 0 0 0 0 0 127 0" result="hardAlpha"/>
<feOffset dx="-2" dy="2"/>
<feGaussianBlur stdDeviation="12"/>
<feColorMatrix type="matrix" values="0 0 0 0 1 0 0 0 0 0.627451 0 0 0 0 0.360784 0 0 0 0.1 0"/>
<feBlend mode="normal" in2="effect1_dropShadow_234_3856" result="effect2_dropShadow_234_3856"/>
<feColorMatrix in="SourceAlpha" type="matrix" values="0 0 0 0 0 0 0 0 0 0 0 0 0 0 0 0 0 0 127 0" result="hardAlpha"/>
<feOffset dx="-16" dy="20"/>
<feGaussianBlur stdDeviation="20"/>
<feColorMatrix type="matrix" values="0 0 0 0 1 0 0 0 0 0.335 0 0 0 0 0.125 0 0 0 0.15 0"/>
<feBlend mode="soft-light" in2="effect2_dropShadow_234_3856" result="effect3_dropShadow_234_3856"/>
<feBlend mode="normal" in="SourceGraphic" in2="effect3_dropShadow_234_3856" result="shape"/>
</filter>
<filter id="filter1_i_234_3856" x="16" y="84.3687" width="66" height="56" filterUnits="userSpaceOnUse" color-interpolation-filters="sRGB">
<feFlood flood-opacity="0" result="BackgroundImageFix"/>
<feBlend mode="normal" in="SourceGraphic" in2="BackgroundImageFix" result="shape"/>
<feColorMatrix in="SourceAlpha" type="matrix" values="0 0 0 0 0 0 0 0 0 0 0 0 0 0 0 0 0 0 127 0" result="hardAlpha"/>
<feOffset dx="-16" dy="-6"/>
<feGaussianBlur stdDeviation="40"/>
<feComposite in2="hardAlpha" operator="arithmetic" k2="-1" k3="1"/>
<feColorMatrix type="matrix" values="0 0 0 0 0.974 0 0 0 0 0.974889 0 0 0 0 0.976 0 0 0 0.03 0"/>
<feBlend mode="normal" in2="shape" result="effect1_innerShadow_234_3856"/>
</filter>
<filter id="filter2_df_234_3856" x="-10" y="48.3687" width="158" height="158" filterUnits="userSpaceOnUse" color-interpolation-filters="sRGB">
<feFlood flood-opacity="0" result="BackgroundImageFix"/>
<feColorMatrix in="SourceAlpha" type="matrix" values="0 0 0 0 0 0 0 0 0 0 0 0 0 0 0 0 0 0 127 0" result="hardAlpha"/>
<feOffset dx="12" dy="12"/>
<feGaussianBlur stdDeviation="29"/>
<feColorMatrix type="matrix" values="0 0 0 0 0 0 0 0 0 0 0 0 0 0 0 0 0 0 0.74 0"/>
<feBlend mode="normal" in2="BackgroundImageFix" result="effect1_dropShadow_234_3856"/>
<feBlend mode="normal" in="SourceGraphic" in2="effect1_dropShadow_234_3856" result="shape"/>
<feGaussianBlur stdDeviation="4" result="effect2_foregroundBlur_234_3856"/>
</filter>
<filter id="filter3_ddf_234_3856" x="-2" y="56.3687" width="142" height="142" filterUnits="userSpaceOnUse" color-interpolation-filters="sRGB">
<feFlood flood-opacity="0" result="BackgroundImageFix"/>
<feColorMatrix in="SourceAlpha" type="matrix" values="0 0 0 0 0 0 0 0 0 0 0 0 0 0 0 0 0 0 127 0" result="hardAlpha"/>
<feOffset dx="12" dy="12"/>
<feGaussianBlur stdDeviation="29"/>
<feColorMatrix type="matrix" values="0 0 0 0 0 0 0 0 0 0 0 0 0 0 0 0 0 0 0.74 0"/>
<feBlend mode="normal" in2="BackgroundImageFix" result="effect1_dropShadow_234_3856"/>
<feColorMatrix in="SourceAlpha" type="matrix" values="0 0 0 0 0 0 0 0 0 0 0 0 0 0 0 0 0 0 127 0" result="hardAlpha"/>
<feOffset dx="-12" dy="-10"/>
<feGaussianBlur stdDeviation="16"/>
<feColorMatrix type="matrix" values="0 0 0 0 0.763833 0 0 0 0 0.783333 0 0 0 0 0.802833 0 0 0 0.12 0"/>
<feBlend mode="normal" in2="effect1_dropShadow_234_3856" result="effect2_dropShadow_234_3856"/>
<feBlend mode="normal" in="SourceGraphic" in2="effect2_dropShadow_234_3856" result="shape"/>
<feGaussianBlur stdDeviation="4" result="effect3_foregroundBlur_234_3856"/>
</filter>
<linearGradient id="paint0_linear_234_3856" x1="34.9378" y1="125.131" x2="79.6684" y2="124.383" gradientUnits="userSpaceOnUse">
<stop stop-color="#5F5FFF"/>
<stop offset="1" stop-color="#1ED6FF"/>
</linearGradient>
<linearGradient id="paint1_linear_234_3856" x1="91.4258" y1="61.3692" x2="30.866" y2="100.253" gradientUnits="userSpaceOnUse">
<stop stop-color="white"/>
<stop offset="1" stop-color="#CD5B0A"/>
</linearGradient>
<linearGradient id="paint2_linear_234_3856" x1="87.8036" y1="54.6544" x2="16.8346" y2="174.894" gradientUnits="userSpaceOnUse">
<stop offset="0.226599" stop-color="#353A40"/>
<stop offset="0.697917" stop-color="#121416"/>
</linearGradient>
<linearGradient id="paint3_linear_234_3856" x1="77.4609" y1="88.066" x2="20.0869" y2="114.839" gradientUnits="userSpaceOnUse">
<stop offset="0.0709612" stop-color="#505962"/>
<stop offset="0.507086" stop-opacity="0"/>
<stop offset="1"/>
</linearGradient>
<linearGradient id="paint4_linear_234_3856" x1="130.719" y1="181.431" x2="49.2114" y2="67.4716" gradientUnits="userSpaceOnUse">
<stop stop-color="#32383E"/>
<stop offset="1" stop-color="#17191C"/>
</linearGradient>
<linearGradient id="paint5_linear_234_3856" x1="102.635" y1="156.264" x2="52.1785" y2="85.7181" gradientUnits="userSpaceOnUse">
<stop stop-color="#32383E"/>
<stop offset="1" stop-color="#17191C"/>
</linearGradient>
<clipPath id="clip0_234_3856">
<rect width="20" height="20" fill="white" transform="translate(47 105.369)"/>
</clipPath>
</defs>
</svg>
